<svg
   xmlns="http://www.w3.org/2000/svg"
   version="1.1"
   viewBox="0 0 120.01277 117.53849"
   height="128"
   width="128">
  <path
     style="fill:#274c72"
     d="M 0,55.427061 C 0,40.343548 11.950562,27.828453 27.034075,27.828453 L 45.78607,46.580448 H 27.190393 c -4.827598,0 -8.677316,4.019015 -8.677316,8.846613 0,4.827597 3.849718,8.967783 8.677316,8.967783 h 36.410073 l 18.751995,18.751995 -55.162068,0 c -4.827598,0 -8.666394,3.642275 -8.666394,8.469873 0,4.827598 3.838796,8.406918 8.666394,8.406918 h 72.038864 l 18.762943,18.76295 c -30.225285,-0.004 -60.571433,-0.007 -90.796718,-0.0109 -15.083513,0 -27.18455583,-12.22185 -27.18455583,-27.305368 C 0.02184433,84.829534 2.4465654,78.418222 6.8372765,73.437714 2.4465654,68.457206 0.02184433,62.056816 0.01092217,55.427061 Z" />
  <path
     style="fill:#404041"
     d="m 56.479891,-1.36899 c -15.083512,0 -27.414298,12.119224 -27.414298,27.202737 l 18.751995,18.75199 V 25.789291 c 0,-4.827598 3.834706,-8.652529 8.662303,-8.652529 4.827598,0 9.152093,3.824931 9.152093,8.652529 V 62.400133 L 84.383979,81.152128 V 25.789291 c 0,-4.827598 3.910136,-8.506096 8.737733,-8.506096 4.827598,0 8.139058,3.678498 8.139058,8.506096 l -0.0129,72.235197 18.77214,18.763632 c -0.002,-30.236307 -0.005,-60.76985 -0.007,-91.006154 0,-15.083513 -12.2219,-27.0081798 -27.305417,-27.0081798 -6.640677,0.010918 -13.2363,2.3037892 -18.216808,6.6945003 C 69.520959,1.0775754 63.109647,-1.3471457 56.479891,-1.36899 Z" />
</svg>
