<svg
   xmlns="http://www.w3.org/2000/svg"
   width="133mm"
   height="32mm"
   viewBox="0 0 471.31 111.06"
   version="1.1">
  <path
     d="m 0.001834,51.87617 c 0,-13.81 11.21,-25 25.02,-25 1.25,1.25 15.22,15.22 17,17 h -17.05 -0.02 c -4.42,0 -8,3.58 -8,8 0,4.42 3.58,8 8,8 h 0.02 v 0 h 0.04 12.69 10.97 c 0,0 0,0 0,0 h 9.37 l 17,17 h -26.37 -10.96 -12.69 -0.04 -0.02 c -4.42,0 -8,3.58 -8,8 0,4.42 3.58,8 8,8 h 0.02 v 0 h 0.05 23.64 c 0,0 0,0 0,0 h 42.36 l 16.999996,17 H 25.031834 c 0,0 -0.01,0 -0.02,0 -13.81,0 -25,-11.19 -25,-25 0.01,-6.08 2.23,-11.95 6.25,-16.51 -4.02,-4.56 -6.24,-10.42 -6.25,-16.49 z"
     style="fill:#274c72" />
  <path
     d="m 51.881834,-0.00383 c -13.81,0 -25,11.21 -25,25.02 1.25,1.25 15.22,15.22 17,17 v -17.05 -0.02 c 0,-4.42 3.58,-8 8,-8 4.42,0 8,3.58 8,8 v 0.02 0 0.04 12.69 10.97 c 0,0 0,0 0,0 v 9.37 l 17,17 v -26.37 -10.96 -12.69 -0.04 -0.02 c 0,-4.42 3.58,-8 8,-8 4.42,0 8,3.58 8,8 v 0.02 0 0.05 23.64 c 0,0 0,0 0,0 v 42.36 l 16.999996,17 v -83 c 0,0 0,-0.01 0,-0.02 0,-13.81 -11.189996,-25 -24.999996,-25 -6.08,0.01 -11.95,2.23 -16.51,6.25 -4.55,-4.02 -10.42,-6.24 -16.49,-6.26 z"
     style="fill:#404041" />
  <path
     d="m 152.84183,52.13617 h -34.08 v -49.72 h 34.08 v 9.95 h -24.13 v 9.95 h 16.33 v 9.95 h -16.33 v 9.92 h 24.13 z m 28.89,0 h -9.92 v -39.77 h -14.94 v -9.95 h 39.77 v 9.95 h -14.91 z m 47.99,-19.86 v -9.95 q 0,-2.05 -0.8,-3.85 -0.76,-1.84 -2.11,-3.19 -1.35,-1.35 -3.19,-2.11 -1.8,-0.8 -3.85,-0.8 -2.05,0 -3.88,0.8 -1.8,0.76 -3.16,2.11 -1.35,1.35 -2.15,3.19 -0.76,1.8 -0.76,3.85 v 9.95 z m 9.95,19.87 h -9.95 v -9.95 h -19.9 v 9.95 h -9.92 v -29.82 q 0,-4.13 1.56,-7.73 1.56,-3.64 4.23,-6.34 2.7,-2.7 6.31,-4.26 3.64,-1.56 7.77,-1.56 4.13,0 7.73,1.56 3.64,1.56 6.34,4.26 2.7,2.7 4.26,6.34 1.56,3.61 1.56,7.73 v 29.82 z m 47.83,-24.87 q 0,3.43 -0.9,6.62 -0.87,3.16 -2.5,5.93 -1.63,2.74 -3.88,5.03 -2.25,2.25 -5.03,3.88 -2.77,1.63 -5.96,2.53 -3.16,0.87 -6.59,0.87 h -14.98 v -49.72 h 14.98 q 3.43,0 6.59,0.9 3.19,0.87 5.96,2.5 2.77,1.63 5.03,3.92 2.25,2.25 3.88,5.03 1.63,2.74 2.5,5.93 0.9,3.16 0.9,6.59 z m -9.95,0 q 0,-3.09 -1.18,-5.79 -1.14,-2.7 -3.19,-4.72 -2.01,-2.05 -4.75,-3.22 -2.7,-1.18 -5.79,-1.18 h -4.96 v 29.82 h 4.96 q 3.09,0 5.79,-1.14 2.74,-1.18 4.75,-3.19 2.05,-2.05 3.19,-4.75 1.18,-2.74 1.18,-5.82 z m 44.99,5 v -9.95 q 0,-2.05 -0.8,-3.85 -0.76,-1.84 -2.11,-3.19 -1.35,-1.35 -3.19,-2.11 -1.8,-0.8 -3.85,-0.8 -2.05,0 -3.88,0.8 -1.8,0.76 -3.16,2.11 -1.35,1.35 -2.15,3.19 -0.76,1.8 -0.76,3.85 v 9.95 z m 9.95,19.87 h -9.95 v -9.95 h -19.9 v 9.95 h -9.92 v -29.82 q 0,-4.13 1.56,-7.73 1.56,-3.64 4.23,-6.34 2.7,-2.7 6.31,-4.26 3.64,-1.56 7.77,-1.56 4.13,0 7.73,1.56 3.64,1.56 6.34,4.26 2.7,2.7 4.26,6.34 1.56,3.61 1.56,7.73 v 29.82 z m 28.76,-0.01 h -9.92 v -39.77 h -14.94 v -9.95 h 39.77 v 9.95 h -14.91 z m 48.62,-19.86 v -9.95 q 0,-2.05 -0.8,-3.85 -0.76,-1.84 -2.11,-3.19 -1.35,-1.35 -3.19,-2.11 -1.8,-0.8 -3.85,-0.8 -2.05,0 -3.88,0.8 -1.8,0.76 -3.16,2.11 -1.35,1.35 -2.15,3.19 -0.76,1.8 -0.76,3.85 v 9.95 z m 9.95,19.87 h -9.95 v -9.95 h -19.9 v 9.95 h -9.92 v -29.82 q 0,-4.13 1.56,-7.73 1.56,-3.64 4.23,-6.34 2.7,-2.7 6.31,-4.26 3.64,-1.56 7.77,-1.56 4.13,0 7.73,1.56 3.64,1.56 6.34,4.26 2.7,2.7 4.26,6.34 1.56,3.61 1.56,7.73 v 29.82 z"
     style="fill:#404041" />
  <path
     d="m 160.38183,110.02617 h -11.67 l -9.25,-15.52 -9.29,15.52 h -11.6 l 14.75,-24.04 -14.75,-24.04 h 11.6 l 9.29,15.52 9.25,-15.52 h 11.67 l -14.75,24.04 z m 26.43,0 h -9.59 v -38.45 h -14.45 v -9.62 h 38.45 v 9.62 h -14.42 v 38.45 z m 29.13,-38.45 v 19.24 h 9.62 q 1.98,0 3.72,-0.74 1.74,-0.77 3.05,-2.08 1.31,-1.31 2.04,-3.05 0.77,-1.78 0.77,-3.75 0,-1.98 -0.77,-3.72 -0.74,-1.78 -2.04,-3.08 -1.31,-1.31 -3.05,-2.04 -1.74,-0.77 -3.72,-0.77 h -9.62 z m 0,38.45 h -9.62 v -48.07 h 19.24 q 2.65,0 5.1,0.7 2.45,0.67 4.56,1.94 2.15,1.24 3.89,3.02 1.78,1.74 3.02,3.89 1.27,2.15 1.94,4.59 0.7,2.45 0.7,5.1 0,2.48 -0.64,4.83 -0.6,2.35 -1.78,4.46 -1.14,2.11 -2.82,3.89 -1.68,1.78 -3.75,3.08 l 5.33,12.57 h -10.22 l -4.19,-9.69 -10.76,0.07 z m 63.11,-19.21 v -9.62 q 0,-1.98 -0.77,-3.72 -0.74,-1.78 -2.04,-3.08 -1.31,-1.31 -3.08,-2.04 -1.74,-0.77 -3.72,-0.77 -1.98,0 -3.75,0.77 -1.74,0.74 -3.05,2.04 -1.31,1.31 -2.08,3.08 -0.74,1.74 -0.74,3.72 v 9.62 h 19.24 z m 9.62,19.21 h -9.62 v -9.62 h -19.24 v 9.62 h -9.59 v -28.83 q 0,-3.99 1.51,-7.48 1.51,-3.52 4.09,-6.13 2.61,-2.61 6.1,-4.12 3.52,-1.51 7.51,-1.51 3.99,0 7.48,1.51 3.52,1.51 6.13,4.12 2.61,2.61 4.12,6.13 1.51,3.49 1.51,7.48 z m 45.68,-4.93 q -3.35,2.88 -7.51,4.43 -4.16,1.54 -8.62,1.54 -3.42,0 -6.6,-0.91 -3.15,-0.87 -5.93,-2.48 -2.75,-1.64 -5.03,-3.92 -2.28,-2.28 -3.92,-5.03 -1.61,-2.78 -2.51,-5.93 -0.87,-3.18 -0.87,-6.6 0,-3.42 0.87,-6.6 0.91,-3.18 2.51,-5.93 1.64,-2.78 3.92,-5.06 2.28,-2.28 5.03,-3.89 2.78,-1.64 5.93,-2.51 3.18,-0.91 6.6,-0.91 4.46,0 8.62,1.54 4.16,1.51 7.51,4.43 l -5.1,8.38 q -2.11,-2.28 -4.99,-3.49 -2.88,-1.24 -6.03,-1.24 -3.18,0 -5.97,1.21 -2.78,1.21 -4.86,3.29 -2.08,2.04 -3.29,4.86 -1.21,2.78 -1.21,5.93 0,3.15 1.21,5.93 1.21,2.75 3.29,4.83 2.08,2.08 4.86,3.29 2.78,1.21 5.97,1.21 3.15,0 6.03,-1.21 2.88,-1.24 4.99,-3.52 l 5.1,8.38 z m 27.54,4.93 h -9.59 v -38.45 h -14.45 v -9.62 h 38.45 v 9.62 h -14.42 v 38.45 z m 64.5,-23.84 q 0,3.42 -0.91,6.6 -0.87,3.15 -2.48,5.93 -1.61,2.75 -3.89,5.03 -2.28,2.28 -5.03,3.92 -2.75,1.61 -5.93,2.48 -3.18,0.91 -6.6,0.91 -3.42,0 -6.6,-0.91 -3.15,-0.87 -5.93,-2.48 -2.75,-1.64 -5.03,-3.92 -2.28,-2.28 -3.92,-5.03 -1.61,-2.78 -2.51,-5.93 -0.87,-3.18 -0.87,-6.6 0,-3.42 0.87,-6.6 0.91,-3.18 2.51,-5.93 1.64,-2.75 3.92,-5.03 2.28,-2.28 5.03,-3.89 2.78,-1.61 5.93,-2.48 3.18,-0.91 6.6,-0.91 3.42,0 6.6,0.91 3.18,0.87 5.93,2.48 2.75,1.61 5.03,3.89 2.28,2.28 3.89,5.03 1.61,2.75 2.48,5.93 0.91,3.18 0.91,6.6 z m -9.55,0 q 0,-3.15 -1.21,-5.93 -1.21,-2.82 -3.29,-4.86 -2.04,-2.08 -4.86,-3.29 -2.78,-1.21 -5.93,-1.21 -3.18,0 -5.97,1.21 -2.78,1.21 -4.86,3.29 -2.08,2.04 -3.29,4.86 -1.21,2.78 -1.21,5.93 0,3.15 1.21,5.93 1.21,2.75 3.29,4.83 2.08,2.08 4.86,3.29 2.78,1.21 5.97,1.21 3.15,0 5.93,-1.21 2.82,-1.21 4.86,-3.29 2.08,-2.08 3.29,-4.83 1.21,-2.78 1.21,-5.93 z m 25.64,-14.61 v 19.24 h 9.62 q 1.98,0 3.72,-0.74 1.74,-0.77 3.05,-2.08 1.31,-1.31 2.04,-3.05 0.77,-1.78 0.77,-3.75 0,-1.98 -0.77,-3.72 -0.74,-1.78 -2.04,-3.08 -1.31,-1.31 -3.05,-2.04 -1.74,-0.77 -3.72,-0.77 h -9.62 z m 0,38.45 h -9.62 v -48.07 h 19.24 q 2.65,0 5.1,0.7 2.45,0.67 4.56,1.94 2.15,1.24 3.89,3.02 1.78,1.74 3.02,3.89 1.27,2.15 1.94,4.59 0.7,2.45 0.7,5.1 0,2.48 -0.64,4.83 -0.6,2.35 -1.78,4.46 -1.14,2.11 -2.82,3.89 -1.68,1.78 -3.75,3.08 l 5.33,12.57 h -10.22 l -4.19,-9.69 -10.76,0.07 z"
     style="fill:#274c72" />
</svg>
